<svg id="Layer_1" data-name="Layer 1" xmlns="http://www.w3.org/2000/svg" xmlns:xlink="http://www.w3.org/1999/xlink" viewBox="0 0 426.84 426.84"><defs><style>.cls-1{fill:url(#linear-gradient);}.cls-2{fill:#fff;}.cls-3{fill:none;stroke-miterlimit:10;stroke-width:5px;stroke:url(#linear-gradient-2);}</style><linearGradient id="linear-gradient" x1="-141.46" y1="-117.29" x2="400.46" y2="389.29" gradientUnits="userSpaceOnUse"><stop offset="0.19" stop-color="#4a37d8"/><stop offset="0.61" stop-color="#6928d9"/><stop offset="0.98" stop-color="#6638b7"/></linearGradient><linearGradient id="linear-gradient-2" x1="0" y1="213.42" x2="426.84" y2="213.42" xlink:href="#linear-gradient"/></defs><rect class="cls-1" x="11.9" y="12.93" width="402.9" height="402.9" rx="201.45"/><path class="cls-2" d="M348.33,382.72c-9.13,5.27-18.91,9.16-28.84,12.77a3,3,0,0,0-2.83-.76,45.35,45.35,0,0,1-16.87-.84c-5.16-1.17-10.33-.54-15.45-.31-7.85.34-15.62-1-23.43-.62-3.45.17-7.08-.48-10.28.17-7.52,1.55-14.78.43-22.21-.17-5.12-.41-10.25,1.13-15.42,1.54-2.93.24-5.63-.4-8.48-.86-7.16-1.15-14.18-3.43-21.59-3.05-2.55.13-5.12.22-7.34,1.47s-4.75-.59-7,.62a117.3,117.3,0,0,1-20.73-9.22c-3.65-5.9-.32-12.46,6.63-12.25,7.16.22,14.32.5,21.47.75,6.05.2,12.25.37,18.09-1.72,3.12-1.11,6.27-.95,9.44-.85,8.49.26,17-.36,25.45-.27,5,.05,9.65-2.22,14.9-1.86,13.23.93,26.5,1.33,39.64,3.26,5,.74,10.11-.14,15.1,1a36.75,36.75,0,0,1,5.41,1.3,20.64,20.64,0,0,0,13.21.79c5.49-1.44,10.74,1,16,2.25,4,1,7.56,3.08,11.66,3.85C346.39,380,348.31,380.54,348.33,382.72Z" transform="translate(-34.46 -40.62)"/><path class="cls-2" d="M348.33,382.72c-8.94-2.18-17.34-6.15-26.51-7.6a3.41,3.41,0,0,0-1.58-.06c-7.36,2.79-14.16-.25-21.29-1.36-11.34-1.77-22.89-2.35-34.37-3.24-8.3-.64-16.62-1-24.93-1.4a6.45,6.45,0,0,0-2.73.39c-5.2,2.16-10.67,1.87-16.1,1.67-7.41-.28-14.79.41-22.2.34-4.66,0-9.5,1.54-14.25,2.34-6.07,1-11.8-1.06-17.67-.09-3.72.62-7.36-.87-11.06-.69-7.68.39-9.78,3.31-7.74,10.44-1.86-.81-1.64-2.44-1.64-3.95,0-7,.17-14,0-21-.1-3.47,1.45-4.3,4.75-4.28,18.45.09,36.9.05,55.36,0,1.83,0,3.74.3,5.45-.66a9.89,9.89,0,0,1,1-.83c1.88-1.2,3.49-.64,5.07.62a7.18,7.18,0,0,0,6.31,1.71c6.81-1.78,13.78-.24,20.62-1.09,8.71-1.09,17.49-.14,26.21-.67,3.19-.19,5.7,1.4,8.15,2.75a28,28,0,0,0,15.34,3.3,121.42,121.42,0,0,1,41,4.6c2.9.85,5.28,1.65,8.44-.25,3-1.78,5-.35,4.83,3.3-.17,4.67-.54,9.38.28,14C348.79,381.64,348.56,382.18,348.33,382.72Z" transform="translate(-34.46 -40.62)"/><path class="cls-2" d="M226.18,139.63c-.05-2.17-1.59-3.42-3.15-4.63q-10.67-8.31-21.37-16.58c-.77-.6-2.18-1-1.64-2.26.47-1.08,1.83-.85,2.86-.88,9.17-.31,18.33-.7,27.5-.82,3.12,0,4.74-1,5.83-3.91,3-8.15,6.42-16.18,9.71-24.25.4-1,.46-2.59,2-2.49s1.47,1.64,1.88,2.68c3.13,8,6.37,15.93,9.29,24,1.05,2.88,2.66,3.92,5.81,4,8.9.14,17.8.56,26.69,1,1.27.06,3.14-.11,3.58,1.1.53,1.47-1.46,1.87-2.41,2.62q-10.46,8.28-21,16.43c-1.67,1.29-2.71,2.76-2.52,4.88-1.83,1.11-.87,2.68-.76,4.13.35,5-5,11.26-9.83,11.53-3.88.21-6-1.33-6.33-5.05-.2-2.15-1-3.38-3.31-3.34s-5.18-.48-6.41,2.53c-2.4,5.86-6.61,7.35-12.27,4.6-2.49-1.21-3.11-3.21-3.55-5.53C226.16,146.09,227.23,142.8,226.18,139.63Z" transform="translate(-34.46 -40.62)"/><path class="cls-2" d="M168.63,392.68c.43-1.82,1-2.91,3.52-2.21,2.78.78,5.16-1.43,7.95-1.8,6.25-.82,12.16.65,18.05,1.91a65.51,65.51,0,0,0,28.08.38,3.63,3.63,0,0,1,1.57-.18c8.5,2.38,17.07.29,25.59.46a36.52,36.52,0,0,0,7.12-.29c5.08-.91,9.94.92,14.93.6,5.23-.34,10.52.78,15.72-.59,2.84-.75,5.43.78,8.19,1,4.72.41,9.33,1.55,14.2,1.06,2-.2,5.05-.74,5.94,2.44a178.13,178.13,0,0,1-44.68,10.84c-4.43-1.47-9-1.42-13.56-.93-14.13,1.52-28.22,2.29-42.23-1-2.66-.62-5.45-1-8,.63C196.38,402.54,182.12,398.82,168.63,392.68Z" transform="translate(-34.46 -40.62)"/><path class="cls-2" d="M349,381.1c-1.57-4.08-.38-8.31-.79-12.46-.14-1.37.72-3.46-1.65-3.67s-3.69,1.08-3.71,3.49c0,1.77-1.23,3.27-2.48,1.4-3.5-5.22-9.45-4.72-14.42-6.1-9.89-2.75-20.14-3-30.4-2.33a35.61,35.61,0,0,1-20.42-4.95,6.44,6.44,0,0,0-3.67-1.25c-10.54.65-21.1.22-31.67,1-5.72.43-11.55.2-17.31,1.11a5.6,5.6,0,0,1-5.37-1.88,5.41,5.41,0,0,0-4.56-1.88c-.88-3.11-.18-6.29-.38-9.43a3,3,0,0,1,.18-.73c.67-1.39-.62-3.63,1.74-4.24s3.05,1.41,4,2.89c1.37,2.07,3.5,2.56,5.89,2.4,11.77-.77,23.59-.11,35.35-1.18a111.64,111.64,0,0,1,14.28-.77,3.74,3.74,0,0,0,3.89-2.7c.51-1.45.82-3.2,2.81-3.25,2.43-.06,2,2.27,2.82,3.59.29,4.47-.45,9,.43,13.42,1.7,1,3.6.71,5.44.72q27.08,0,54.15,0c5.87,0,5.9,0,5.9,5.8C349.09,367.12,349,374.11,349,381.1Z" transform="translate(-34.46 -40.62)"/><path class="cls-2" d="M230,206.93c-1.81-6.28-2.12-12.78-3.08-19.18a4,4,0,0,1,1.88-4q7.8-5.92,15.53-11.94c2-1.58,4-1.73,6.13-.15q8,6,16.06,11.91a4.59,4.59,0,0,1,2,4.35A83,83,0,0,1,266,203c-2.63,5.29-8,5.27-12.9,6-6.45,1-12.88.51-19.31-.22A6.32,6.32,0,0,1,230,206.93Z" transform="translate(-34.46 -40.62)"/><path class="cls-2" d="M283.59,353.6c-1.65-4.5-.41-9.17-.8-13.75-1.39-3.32-2.4-6.76-1.89-10.35.43-3.08-.72-6-.58-9.05.09-2-1.39-2.44-3.28-2.19a49.42,49.42,0,0,1-9.88,0,49.08,49.08,0,0,0,9.92,0c2.18-.3,3.48.45,3.27,2.6-.23,2.31.91,4.49.52,6.77-.7,4.05-4.31,7.07-10.16,7.75-8.55,1-17.17,1.66-25.78.52-3-.4-5.82.27-8.72.42-5.83.3-11.67-.49-17.5.16-2,.22-3.6-.79-3.75-2.66-.44-5.23-2.25-10.25-2.29-15.52l-.1-.59c1.45-.84,3.07-.7,4.65-.7,20.42,0,40.85.08,61.27-.07,4,0,5.3,1.24,5.21,5.06C283.47,332.53,283.6,343.07,283.59,353.6Z" transform="translate(-34.46 -40.62)"/><path class="cls-2" d="M320.21,199.41c-6.87-.54-13.24,2.14-20.41,3.18,2-4.81,5.4-8.11,8.11-11.78,1.93-2.62,2.25-4.93.44-7.7-2.18-3.34-4.11-6.83-6.11-10.28-.43-.73-1.29-1.55-.41-2.38.63-.61,1.52-.17,2.26.07,4.16,1.33,8.35,2.59,12.47,4,2.29.82,4,.55,5.67-1.27,2.6-2.88,5.31-5.69,8.06-8.45.84-.84,1.49-2.66,3-2,1.26.58.64,2.31.67,3.53a68.27,68.27,0,0,1,0,9.16c-.45,4,1.3,6.16,5.1,7.43,3.13,1,6.15,2.41,9.18,3.73,1.39.61,3.1.81,4.09,2.64-3.82,2-8,2.6-12,3.75-3.67-.08-7.45-.54-9.14,3.87-.38,1-1.53,1.71-2.27,2.59-1.81,2.13-3.8,2.66-6.11.76A3.47,3.47,0,0,0,320.21,199.41Z" transform="translate(-34.46 -40.62)"/><path class="cls-2" d="M147.07,187c3.64-1.54,7.23-3.19,10.92-4.57,2.45-.92,3.56-2.34,3.49-4.87-.11-3.81,0-7.62,0-11.43,0-1.09-.56-2.66.61-3.15,1.5-.63,2.19,1.08,3,1.92a81.65,81.65,0,0,1,6.4,6.77c2.38,2.92,5.06,3.73,8.7,2.38s7.54-2.44,11.33-3.6c.84-.25,1.86-1,2.59-.17s-.16,1.65-.61,2.37c-2.37,3.82-4.69,7.68-7.2,11.41a3.93,3.93,0,0,0,.11,5.21c2.59,3.38,5.07,6.83,7.57,10.27.59.8,1.67,1.66,1,2.67s-1.95.35-2.89.12c-1.53-.38-3-1-4.49-1.49-.85-2-2.81-2.06-4.54-2.13-4.76-.21-9.49.22-13.54-3.32-2.13-1.86-5.49-1.65-8.37-1.83-4.31-.28-8.14-1.78-12-3.53A3.28,3.28,0,0,1,147.07,187Z" transform="translate(-34.46 -40.62)"/><path class="cls-2" d="M230,206.93c3.82-.43,7.61.23,11.37.59,7.51.72,14.64-.78,21.75-2.7,1.46-.39,1.31-1.75,1.83-2.72.19-.35.4-1.14.94-.26.18.29.08.74.11,1.12-1.43,3.85-.28,8-1.46,11.88-.36,1.19-.57,2.42-.85,3.64-2.4.38-1.45,2.14-1.55,3.46-.34,4-1.8,7.36-5.73,9.34-.71.36-1.4,1-2.18.82-5.13-1.14-10.48.56-15.58-1.34-4.26-1.59-5-5-5.45-8.62-.19-1.41.59-3.06-1.56-3.66A43.08,43.08,0,0,1,230,206.93Z" transform="translate(-34.46 -40.62)"/><path class="cls-2" d="M189.43,244.33q-7.05-11.31-14.11-22.6a3.23,3.23,0,0,1,.13-3.92c1.34-1.9,2.69-3.79,4-5.73a4.4,4.4,0,0,1,4.38-2.06q4,.38,7.93.85a3.58,3.58,0,0,1,2.89,2.36,135.56,135.56,0,0,1,8.44,22.61,8.45,8.45,0,0,1-3.33,9.07C196.4,247.48,192.94,247.28,189.43,244.33Z" transform="translate(-34.46 -40.62)"/><path class="cls-2" d="M226.18,139.63c1.31-1.63,1.54-.7,1.53.61a29.12,29.12,0,0,0,.92,9A7.37,7.37,0,0,0,238,154c2.43-.8,2.8-2.68,2-4.63-.85-2.14.12-2.63,2-3a39.24,39.24,0,0,1,11.08-.38c2,.16,3.87.87,1.94,3.4-1.4,1.82-1.29,3.69.77,4.92a4.31,4.31,0,0,0,5.74-.92c3.06-3.48,6.31-6.91,5.3-12.1a4.11,4.11,0,0,1,.68-3.5c1.3.48.81,2,1.67,2.7a39.57,39.57,0,0,0,2.46,9.12c-.11,3.64-3.28,5.29-5.33,7.72-2.91,3.45-6,1.49-9.09.71a24.83,24.83,0,0,1-4.45-2.47c-4.25-3.62-8.12-2.56-12,.51-6.13,4.87-13.14,8.51-19.71,12.78-.8.52-1.69,1.62-2.76.8-.8-.62-.23-1.69,0-2.51q2.67-9.15,5.4-18.27c2.19-2.19,1.49-5.17,2.31-7.74Z" transform="translate(-34.46 -40.62)"/><path class="cls-2" d="M231.65,218.48c.37-1.63,1-2.58,2.41-.69.94,1.3.77,2.9.87,4.42.39,5.82,7.12,9.67,12.68,7.23,1.09-.48,2.17-1.39,3.28-.61,1.76,1.23,3.3,1.9,5.31.41,2.31-1.7,4.12-3.66,4.17-6.54.05-2.64.55-5,2.79-6.77.78.78.34,1.72.54,2.55a110.5,110.5,0,0,1-2.38,18.37c-1.53,1.4-.91,3.55-2,5.15-3,4.28-13.07,6.37-17.62,3.65-2.09-1.26-4.11-2.81-6.82-2.7A196,196,0,0,1,231.65,218.48Z" transform="translate(-34.46 -40.62)"/><path class="cls-2" d="M293.28,232.91c1.7-6.68,4.68-12.91,7.31-19.26a4.31,4.31,0,0,1,3.87-2.82c.39,0,.79-.07,1.18-.12,9.68-1.19,9.81-1.12,13.89,7.63a14,14,0,0,1-2.67,7c-1.95,2.74-4.24,5.21-6,8.12-2.3,3.8-9.67,5.46-14,4.06C294.37,236.7,293.16,235.4,293.28,232.91Z" transform="translate(-34.46 -40.62)"/><path class="cls-2" d="M258.1,263.56c-.08,2.81.27,5.66-.8,8.39-.39.46-1.52-1.56-1.58.54s0,4-.16,6c-.34,4.52-2.15,8.2-6.16,10.68-3.23,2-6.32,1-7.56-2.4-1.4-3.85-2.78-7.7-2.53-11.9.06-1,.41-2.47-1.27-2.94-1.06-2.73-.74-5.58-.79-8.39a6.44,6.44,0,0,1-.26-4.08c.4-2.27,2.31-3.62,4.28-2.46,3.14,1.84,5.71.76,8.56-.22C256.5,254.54,259,256.61,258.1,263.56Z" transform="translate(-34.46 -40.62)"/><path class="cls-2" d="M258.1,263.56c.23-2.26-1.73-3.59-2.51-5.43-.35-.84-1-1.05-1.9-.68-2.17.87-4.45,1.54-6.53,2.57-2.26,1.11-4.09,2.15-6-.64-1.29-1.87-2.82-.84-3.49.84a12.73,12.73,0,0,0-.38,3.36A152.31,152.31,0,0,1,234.84,243c.06-2.48,1.11-3.29,3.46-1.87.45.27.86.59,1.29.88,8.36,5.6,16.17,3.61,20.65-5.28.75-1.49.87-.73,1.08.17A255.43,255.43,0,0,1,258.1,263.56Z" transform="translate(-34.46 -40.62)"/><path class="cls-2" d="M238,272c.24-1.28.57-2.5,2-3.09,1.29.52.6,1.54.5,2.27-.73,5.4,1.08,10.28,3.18,15.11,1,2.33,2.82,2.75,4.75,1.28,3.16-2.42,5.59-5.37,5.58-9.56,0-4,0-8,0-12.65,3.05,2.12,3.14,4.38,3.25,6.62-.2,9.77-1.66,19.44-2.37,29.17-.05.62-.06,1.55-.45,1.8-3.72,2.34-7.9.86-11.87,1.05-2.43.12-2.47-2-2.59-3.57C239.31,290.93,238.69,281.44,238,272Z" transform="translate(-34.46 -40.62)"/><path class="cls-2" d="M189.43,244.33c6.25,1.51,10.4,1,13.64-8.48,3.45,8.14,5.42,16.67,7.13,25.27-1.16,7.91-2.19,8.35-9.7,4.12a3.16,3.16,0,0,0-.76-.21Z" transform="translate(-34.46 -40.62)"/><path class="cls-2" d="M147.07,187c2.39.82,4.14,2.62,6.31,3.82,4.43,2.45,9.15.21,13.59,1.46,1.94.54,3.87.91,5.25,2.39,3,3.25,6.77,3.5,10.89,2.58,3.29-.74,5.46,1,4.58,3.59a4.83,4.83,0,0,1-1.58-.09c-8.14-3.32-13,.17-16.81,6.89-1.25,2.22-3.17,6.36-4.93,5.77-2.82-.93-.74-4.92-1.47-7.51a4.57,4.57,0,0,1-.29-1.87c1.16-7.51-3.3-10.41-10.1-11.6a53.25,53.25,0,0,1-6.85-1.93c-.84-.26-2.15-.23-2.28-1.24-.17-1.37,1.32-1.29,2.22-1.69C146.08,187.37,146.58,187.2,147.07,187Z" transform="translate(-34.46 -40.62)"/><path class="cls-2" d="M304.39,247.45q-4.75,9.62-9.53,19.22c-2.08-.23-4.21.15-6.26-.69A5.34,5.34,0,0,1,285,261.8a142,142,0,0,1,6.46-22.9c1.55-.54,2.24.42,2.57,1.55,1,3.41,3.58,4.38,6.92,4.29C302.91,244.68,304.78,244.78,304.39,247.45Z" transform="translate(-34.46 -40.62)"/><path class="cls-2" d="M304.39,247.45a2.83,2.83,0,0,0-2.05-1c-8.64-.53-8.64-.54-10.87-7.57.6-2,1.21-4,1.81-6,3.46,3.74,6.89,3.59,11.24,1.89,8.1-3.18,11.74-9.53,15-16.46a3.71,3.71,0,0,1-.17,4.29C313.94,230.67,309.31,239.14,304.39,247.45Z" transform="translate(-34.46 -40.62)"/><path class="cls-2" d="M211,405.05l-2.84-2.13c4.6-.21,8.23-1.36,12.3-.25,5.59,1.53,11.37,2.45,17.1,3.54a6.33,6.33,0,0,0,3.54-.07c6.48-3.05,13.61-1.36,20.33-2.69,4.59-.91,9.25.29,13.86.68.61.05,1.62.14,1.34.91-.21.57-1.2.87-1.85,1.29-2.9,1.15-6,1-9,1.15C247.44,408.55,229.15,408.38,211,405.05Z" transform="translate(-34.46 -40.62)"/><path class="cls-2" d="M285,261.8c2.39,1.34,4.44,3.37,7.74,2.46,1.85-.51,1.83,1.25,2.11,2.41l-5.61,14.42c-2.25,0-2.95,1.72-4,3.1s-2.25,3.26-4.73,2.15A176.58,176.58,0,0,1,285,261.8Z" transform="translate(-34.46 -40.62)"/><path class="cls-2" d="M199.74,265a2.45,2.45,0,0,1,3.16-.47c4.14,2.13,4.71,1.9,6.57-2.1.22-.46.48-.89.73-1.34a147.84,147.84,0,0,1,4.7,24.47,2.89,2.89,0,0,1-4.31-.84,3.51,3.51,0,0,0-3.65-1.36Z" transform="translate(-34.46 -40.62)"/><path class="cls-2" d="M257.27,158c1-.43,1.53-3,3.19-.49,1,1.45,2.1.32,2.94-.43,2.79-2.47,5.53-5,8.29-7.51,2.26,6,3.67,12.22,5.28,18.39a2.22,2.22,0,0,1-.14,1.78c-.74.77-1.42-.07-2-.46Q266,163.64,257.27,158Z" transform="translate(-34.46 -40.62)"/><path class="cls-2" d="M320.21,199.41c.44-.83,1.28-1.85,2.07-1.32,5,3.3,6.22-1.11,8.27-3.59s6.66-3.16,9.69-1.4c-7.69,2.51-6.88,1.41-7.24,8.71-.18,3.43-.55,6.84-.84,10.26-.06.62,0,1.37-.74,1.66s-1.22-.29-1.56-.81C326.87,208.27,322.67,204.41,320.21,199.41Z" transform="translate(-34.46 -40.62)"/><path class="cls-2" d="M206.94,283.39a6.75,6.75,0,0,1,.17-1.11c.39-1.29.28-3.24,1.86-3.43,1.77-.21,1.81,1.86,2.32,3a6.39,6.39,0,0,0,3.61,3.72,21.93,21.93,0,0,1,.9,7.63c-1.09,1.86-2.39,3.43-4.94,3.25Q208.9,289.93,206.94,283.39Z" transform="translate(-34.46 -40.62)"/><path class="cls-2" d="M280.48,286.34a16.43,16.43,0,0,0,3.28-3.68c1.21-2.3,3.07-2.94,5.49-1.57-2.09,4-1.78,8.76-4.09,12.72-1.69.87-2.47,2.57-3.76,3.8-.73.7-1.31,1.57-2.53.95A67.19,67.19,0,0,1,280.48,286.34Z" transform="translate(-34.46 -40.62)"/><path class="cls-2" d="M210.86,296.47c.82-2.24,3.14-2.38,4.94-3.25-.34,2.86,1.21,5.45,1.32,8.24,0,1.26.35,2.67-1.51,3s-3.1-.23-3.62-2.06A17.45,17.45,0,0,1,210.86,296.47Z" transform="translate(-34.46 -40.62)"/><path class="cls-2" d="M278.87,298.56c-.08-3.43,4-3.7,5.17-6.22.21-.46.45-.36,1.12,1.47-.74,2.53-1.64,5-2.16,7.6-.34,1.69-.3,3.45-2.78,3.19-2.74-.29-1.75-2.29-1.68-3.8A19.21,19.21,0,0,1,278.87,298.56Z" transform="translate(-34.46 -40.62)"/><path class="cls-2" d="M212.57,343.68c0,3.3,0,6.61,0,9.92l-.77,0q0-15.94,0-31.87a6.88,6.88,0,0,1,.76-4.05l.06.06C214,326.4,215.77,335,212.57,343.68Z" transform="translate(-34.46 -40.62)"/><path class="cls-2" d="M226.08,141.08c-.12,2.76.88,5.82-2.31,7.74C224.43,146.21,224.83,143.53,226.08,141.08Z" transform="translate(-34.46 -40.62)"/><path class="cls-2" d="M212.57,343.68l.06-25.92c1.29.14,4.1-.73,1.38,2a1.65,1.65,0,0,0-.19,2.15c2.4,2.94,1.83,6.56,2.52,9.86.46,2.16,1.32,2.93,3.72,2.81,13.34-.66,26.7-.15,40.05-.32,4.82-.05,9.81.07,14.39-2.2,4-1.95,6.5-7.76,4.86-11.65-.57-1.35-1.59-1.56-2.88-1.38-5.06.71-10-.56-15-1.29,6.15,0,12.3,0,18.45,0,.91,0,1.94,0,1.89,1.38-.27,6.93,1.87,13.76,1,20.71L281,337.33c-.72.75-1,.91-1,1.12-1.18,6.56-1.17,6.3-8.32,6.12a115.57,115.57,0,0,0-17.05.79c-8.47,1.06-17,.25-25.42.73-.79,0-1.6,0-2.38,0-8.73.84-8.73.85-12.08-5.7C212.85,340.83,214.13,343.13,212.57,343.68Z" transform="translate(-34.46 -40.62)"/><circle class="cls-3" cx="213.42" cy="213.42" r="210.92"/></svg>